<?xml version="1.0" encoding="utf-8" standalone="no"?>
<!DOCTYPE svg PUBLIC "-//W3C//DTD SVG 1.1//EN"
  "http://www.w3.org/Graphics/SVG/1.1/DTD/svg11.dtd">
<svg height="720pt" version="1.1" viewBox="0 0 1080 720" width="1080pt" xmlns="http://www.w3.org/2000/svg" xmlns:xlink="http://www.w3.org/1999/xlink">
 <metadata>
  <rdf:RDF xmlns:cc="http://creativecommons.org/ns#" xmlns:dc="http://purl.org/dc/elements/1.1/" xmlns:rdf="http://www.w3.org/1999/02/22-rdf-syntax-ns#">
   <cc:Work>
    <dc:type rdf:resource="http://purl.org/dc/dcmitype/StillImage"/>
    <dc:date>2021-04-06T16:58:20.323137</dc:date>
    <dc:format>image/svg+xml</dc:format>
    <dc:creator>
     <cc:Agent>
      <dc:title>Matplotlib v3.4.1, https://matplotlib.org/</dc:title>
     </cc:Agent>
    </dc:creator>
   </cc:Work>
  </rdf:RDF>
 </metadata>
 <defs>
  <style type="text/css">*{stroke-linecap:butt;stroke-linejoin:round;}</style>
 </defs>
 <g id="figure_1">
  <g id="patch_1">
   <path d="M 0 720 
L 1080 720 
L 1080 0 
L 0 0 
z
" style="fill:#ffffff;"/>
  </g>
  <g id="axes_1">
   <g id="patch_2">
    <path d="M 135 338.4 
L 972 338.4 
L 972 86.4 
L 135 86.4 
z
" style="fill:#ffffff;"/>
   </g>
   <g id="matplotlib.axis_1">
    <g id="xtick_1">
     <g id="line2d_1">
      <defs>
       <path d="M 0 0 
L 0 3.5 
" id="m45db3171b2" style="stroke:#000000;stroke-width:0.8;"/>
      </defs>
      <g>
       <use style="stroke:#000000;stroke-width:0.8;" x="165.359504" xlink:href="#m45db3171b2" y="338.4"/>
      </g>
     </g>
     <g id="text_1">
      <!-- 0 -->
      <g transform="translate(162.178254 352.998437)scale(0.1 -0.1)">
       <defs>
        <path d="M 2034 4250 
Q 1547 4250 1301 3770 
Q 1056 3291 1056 2328 
Q 1056 1369 1301 889 
Q 1547 409 2034 409 
Q 2525 409 2770 889 
Q 3016 1369 3016 2328 
Q 3016 3291 2770 3770 
Q 2525 4250 2034 4250 
z
M 2034 4750 
Q 2819 4750 3233 4129 
Q 3647 3509 3647 2328 
Q 3647 1150 3233 529 
Q 2819 -91 2034 -91 
Q 1250 -91 836 529 
Q 422 1150 422 2328 
Q 422 3509 836 4129 
Q 1250 4750 2034 4750 
z
" id="DejaVuSans-30" transform="scale(0.015625)"/>
       </defs>
       <use xlink:href="#DejaVuSans-30"/>
      </g>
     </g>
    </g>
    <g id="xtick_2">
     <g id="line2d_2">
      <g>
       <use style="stroke:#000000;stroke-width:0.8;" x="319.078512" xlink:href="#m45db3171b2" y="338.4"/>
      </g>
     </g>
     <g id="text_2">
      <!-- 20 -->
      <g transform="translate(312.716012 352.998437)scale(0.1 -0.1)">
       <defs>
        <path d="M 1228 531 
L 3431 531 
L 3431 0 
L 469 0 
L 469 531 
Q 828 903 1448 1529 
Q 2069 2156 2228 2338 
Q 2531 2678 2651 2914 
Q 2772 3150 2772 3378 
Q 2772 3750 2511 3984 
Q 2250 4219 1831 4219 
Q 1534 4219 1204 4116 
Q 875 4013 500 3803 
L 500 4441 
Q 881 4594 1212 4672 
Q 1544 4750 1819 4750 
Q 2544 4750 2975 4387 
Q 3406 4025 3406 3419 
Q 3406 3131 3298 2873 
Q 3191 2616 2906 2266 
Q 2828 2175 2409 1742 
Q 1991 1309 1228 531 
z
" id="DejaVuSans-32" transform="scale(0.015625)"/>
       </defs>
       <use xlink:href="#DejaVuSans-32"/>
       <use x="63.623047" xlink:href="#DejaVuSans-30"/>
      </g>
     </g>
    </g>
    <g id="xtick_3">
     <g id="line2d_3">
      <g>
       <use style="stroke:#000000;stroke-width:0.8;" x="472.797521" xlink:href="#m45db3171b2" y="338.4"/>
      </g>
     </g>
     <g id="text_3">
      <!-- 40 -->
      <g transform="translate(466.435021 352.998437)scale(0.1 -0.1)">
       <defs>
        <path d="M 2419 4116 
L 825 1625 
L 2419 1625 
L 2419 4116 
z
M 2253 4666 
L 3047 4666 
L 3047 1625 
L 3713 1625 
L 3713 1100 
L 3047 1100 
L 3047 0 
L 2419 0 
L 2419 1100 
L 313 1100 
L 313 1709 
L 2253 4666 
z
" id="DejaVuSans-34" transform="scale(0.015625)"/>
       </defs>
       <use xlink:href="#DejaVuSans-34"/>
       <use x="63.623047" xlink:href="#DejaVuSans-30"/>
      </g>
     </g>
    </g>
    <g id="xtick_4">
     <g id="line2d_4">
      <g>
       <use style="stroke:#000000;stroke-width:0.8;" x="626.516529" xlink:href="#m45db3171b2" y="338.4"/>
      </g>
     </g>
     <g id="text_4">
      <!-- 60 -->
      <g transform="translate(620.154029 352.998437)scale(0.1 -0.1)">
       <defs>
        <path d="M 2113 2584 
Q 1688 2584 1439 2293 
Q 1191 2003 1191 1497 
Q 1191 994 1439 701 
Q 1688 409 2113 409 
Q 2538 409 2786 701 
Q 3034 994 3034 1497 
Q 3034 2003 2786 2293 
Q 2538 2584 2113 2584 
z
M 3366 4563 
L 3366 3988 
Q 3128 4100 2886 4159 
Q 2644 4219 2406 4219 
Q 1781 4219 1451 3797 
Q 1122 3375 1075 2522 
Q 1259 2794 1537 2939 
Q 1816 3084 2150 3084 
Q 2853 3084 3261 2657 
Q 3669 2231 3669 1497 
Q 3669 778 3244 343 
Q 2819 -91 2113 -91 
Q 1303 -91 875 529 
Q 447 1150 447 2328 
Q 447 3434 972 4092 
Q 1497 4750 2381 4750 
Q 2619 4750 2861 4703 
Q 3103 4656 3366 4563 
z
" id="DejaVuSans-36" transform="scale(0.015625)"/>
       </defs>
       <use xlink:href="#DejaVuSans-36"/>
       <use x="63.623047" xlink:href="#DejaVuSans-30"/>
      </g>
     </g>
    </g>
    <g id="xtick_5">
     <g id="line2d_5">
      <g>
       <use style="stroke:#000000;stroke-width:0.8;" x="780.235537" xlink:href="#m45db3171b2" y="338.4"/>
      </g>
     </g>
     <g id="text_5">
      <!-- 80 -->
      <g transform="translate(773.873037 352.998437)scale(0.1 -0.1)">
       <defs>
        <path d="M 2034 2216 
Q 1584 2216 1326 1975 
Q 1069 1734 1069 1313 
Q 1069 891 1326 650 
Q 1584 409 2034 409 
Q 2484 409 2743 651 
Q 3003 894 3003 1313 
Q 3003 1734 2745 1975 
Q 2488 2216 2034 2216 
z
M 1403 2484 
Q 997 2584 770 2862 
Q 544 3141 544 3541 
Q 544 4100 942 4425 
Q 1341 4750 2034 4750 
Q 2731 4750 3128 4425 
Q 3525 4100 3525 3541 
Q 3525 3141 3298 2862 
Q 3072 2584 2669 2484 
Q 3125 2378 3379 2068 
Q 3634 1759 3634 1313 
Q 3634 634 3220 271 
Q 2806 -91 2034 -91 
Q 1263 -91 848 271 
Q 434 634 434 1313 
Q 434 1759 690 2068 
Q 947 2378 1403 2484 
z
M 1172 3481 
Q 1172 3119 1398 2916 
Q 1625 2713 2034 2713 
Q 2441 2713 2670 2916 
Q 2900 3119 2900 3481 
Q 2900 3844 2670 4047 
Q 2441 4250 2034 4250 
Q 1625 4250 1398 4047 
Q 1172 3844 1172 3481 
z
" id="DejaVuSans-38" transform="scale(0.015625)"/>
       </defs>
       <use xlink:href="#DejaVuSans-38"/>
       <use x="63.623047" xlink:href="#DejaVuSans-30"/>
      </g>
     </g>
    </g>
    <g id="xtick_6">
     <g id="line2d_6">
      <g>
       <use style="stroke:#000000;stroke-width:0.8;" x="933.954545" xlink:href="#m45db3171b2" y="338.4"/>
      </g>
     </g>
     <g id="text_6">
      <!-- 100 -->
      <g transform="translate(924.410795 352.998437)scale(0.1 -0.1)">
       <defs>
        <path d="M 794 531 
L 1825 531 
L 1825 4091 
L 703 3866 
L 703 4441 
L 1819 4666 
L 2450 4666 
L 2450 531 
L 3481 531 
L 3481 0 
L 794 0 
L 794 531 
z
" id="DejaVuSans-31" transform="scale(0.015625)"/>
       </defs>
       <use xlink:href="#DejaVuSans-31"/>
       <use x="63.623047" xlink:href="#DejaVuSans-30"/>
       <use x="127.246094" xlink:href="#DejaVuSans-30"/>
      </g>
     </g>
    </g>
    <g id="text_7">
     <!-- Qtd Chaves (unit) -->
     <g transform="translate(509.298437 366.676562)scale(0.1 -0.1)">
      <defs>
       <path d="M 2522 4238 
Q 1834 4238 1429 3725 
Q 1025 3213 1025 2328 
Q 1025 1447 1429 934 
Q 1834 422 2522 422 
Q 3209 422 3611 934 
Q 4013 1447 4013 2328 
Q 4013 3213 3611 3725 
Q 3209 4238 2522 4238 
z
M 3406 84 
L 4238 -825 
L 3475 -825 
L 2784 -78 
Q 2681 -84 2626 -87 
Q 2572 -91 2522 -91 
Q 1538 -91 948 567 
Q 359 1225 359 2328 
Q 359 3434 948 4092 
Q 1538 4750 2522 4750 
Q 3503 4750 4090 4092 
Q 4678 3434 4678 2328 
Q 4678 1516 4351 937 
Q 4025 359 3406 84 
z
" id="DejaVuSans-51" transform="scale(0.015625)"/>
       <path d="M 1172 4494 
L 1172 3500 
L 2356 3500 
L 2356 3053 
L 1172 3053 
L 1172 1153 
Q 1172 725 1289 603 
Q 1406 481 1766 481 
L 2356 481 
L 2356 0 
L 1766 0 
Q 1100 0 847 248 
Q 594 497 594 1153 
L 594 3053 
L 172 3053 
L 172 3500 
L 594 3500 
L 594 4494 
L 1172 4494 
z
" id="DejaVuSans-74" transform="scale(0.015625)"/>
       <path d="M 2906 2969 
L 2906 4863 
L 3481 4863 
L 3481 0 
L 2906 0 
L 2906 525 
Q 2725 213 2448 61 
Q 2172 -91 1784 -91 
Q 1150 -91 751 415 
Q 353 922 353 1747 
Q 353 2572 751 3078 
Q 1150 3584 1784 3584 
Q 2172 3584 2448 3432 
Q 2725 3281 2906 2969 
z
M 947 1747 
Q 947 1113 1208 752 
Q 1469 391 1925 391 
Q 2381 391 2643 752 
Q 2906 1113 2906 1747 
Q 2906 2381 2643 2742 
Q 2381 3103 1925 3103 
Q 1469 3103 1208 2742 
Q 947 2381 947 1747 
z
" id="DejaVuSans-64" transform="scale(0.015625)"/>
       <path id="DejaVuSans-20" transform="scale(0.015625)"/>
       <path d="M 4122 4306 
L 4122 3641 
Q 3803 3938 3442 4084 
Q 3081 4231 2675 4231 
Q 1875 4231 1450 3742 
Q 1025 3253 1025 2328 
Q 1025 1406 1450 917 
Q 1875 428 2675 428 
Q 3081 428 3442 575 
Q 3803 722 4122 1019 
L 4122 359 
Q 3791 134 3420 21 
Q 3050 -91 2638 -91 
Q 1578 -91 968 557 
Q 359 1206 359 2328 
Q 359 3453 968 4101 
Q 1578 4750 2638 4750 
Q 3056 4750 3426 4639 
Q 3797 4528 4122 4306 
z
" id="DejaVuSans-43" transform="scale(0.015625)"/>
       <path d="M 3513 2113 
L 3513 0 
L 2938 0 
L 2938 2094 
Q 2938 2591 2744 2837 
Q 2550 3084 2163 3084 
Q 1697 3084 1428 2787 
Q 1159 2491 1159 1978 
L 1159 0 
L 581 0 
L 581 4863 
L 1159 4863 
L 1159 2956 
Q 1366 3272 1645 3428 
Q 1925 3584 2291 3584 
Q 2894 3584 3203 3211 
Q 3513 2838 3513 2113 
z
" id="DejaVuSans-68" transform="scale(0.015625)"/>
       <path d="M 2194 1759 
Q 1497 1759 1228 1600 
Q 959 1441 959 1056 
Q 959 750 1161 570 
Q 1363 391 1709 391 
Q 2188 391 2477 730 
Q 2766 1069 2766 1631 
L 2766 1759 
L 2194 1759 
z
M 3341 1997 
L 3341 0 
L 2766 0 
L 2766 531 
Q 2569 213 2275 61 
Q 1981 -91 1556 -91 
Q 1019 -91 701 211 
Q 384 513 384 1019 
Q 384 1609 779 1909 
Q 1175 2209 1959 2209 
L 2766 2209 
L 2766 2266 
Q 2766 2663 2505 2880 
Q 2244 3097 1772 3097 
Q 1472 3097 1187 3025 
Q 903 2953 641 2809 
L 641 3341 
Q 956 3463 1253 3523 
Q 1550 3584 1831 3584 
Q 2591 3584 2966 3190 
Q 3341 2797 3341 1997 
z
" id="DejaVuSans-61" transform="scale(0.015625)"/>
       <path d="M 191 3500 
L 800 3500 
L 1894 563 
L 2988 3500 
L 3597 3500 
L 2284 0 
L 1503 0 
L 191 3500 
z
" id="DejaVuSans-76" transform="scale(0.015625)"/>
       <path d="M 3597 1894 
L 3597 1613 
L 953 1613 
Q 991 1019 1311 708 
Q 1631 397 2203 397 
Q 2534 397 2845 478 
Q 3156 559 3463 722 
L 3463 178 
Q 3153 47 2828 -22 
Q 2503 -91 2169 -91 
Q 1331 -91 842 396 
Q 353 884 353 1716 
Q 353 2575 817 3079 
Q 1281 3584 2069 3584 
Q 2775 3584 3186 3129 
Q 3597 2675 3597 1894 
z
M 3022 2063 
Q 3016 2534 2758 2815 
Q 2500 3097 2075 3097 
Q 1594 3097 1305 2825 
Q 1016 2553 972 2059 
L 3022 2063 
z
" id="DejaVuSans-65" transform="scale(0.015625)"/>
       <path d="M 2834 3397 
L 2834 2853 
Q 2591 2978 2328 3040 
Q 2066 3103 1784 3103 
Q 1356 3103 1142 2972 
Q 928 2841 928 2578 
Q 928 2378 1081 2264 
Q 1234 2150 1697 2047 
L 1894 2003 
Q 2506 1872 2764 1633 
Q 3022 1394 3022 966 
Q 3022 478 2636 193 
Q 2250 -91 1575 -91 
Q 1294 -91 989 -36 
Q 684 19 347 128 
L 347 722 
Q 666 556 975 473 
Q 1284 391 1588 391 
Q 1994 391 2212 530 
Q 2431 669 2431 922 
Q 2431 1156 2273 1281 
Q 2116 1406 1581 1522 
L 1381 1569 
Q 847 1681 609 1914 
Q 372 2147 372 2553 
Q 372 3047 722 3315 
Q 1072 3584 1716 3584 
Q 2034 3584 2315 3537 
Q 2597 3491 2834 3397 
z
" id="DejaVuSans-73" transform="scale(0.015625)"/>
       <path d="M 1984 4856 
Q 1566 4138 1362 3434 
Q 1159 2731 1159 2009 
Q 1159 1288 1364 580 
Q 1569 -128 1984 -844 
L 1484 -844 
Q 1016 -109 783 600 
Q 550 1309 550 2009 
Q 550 2706 781 3412 
Q 1013 4119 1484 4856 
L 1984 4856 
z
" id="DejaVuSans-28" transform="scale(0.015625)"/>
       <path d="M 544 1381 
L 544 3500 
L 1119 3500 
L 1119 1403 
Q 1119 906 1312 657 
Q 1506 409 1894 409 
Q 2359 409 2629 706 
Q 2900 1003 2900 1516 
L 2900 3500 
L 3475 3500 
L 3475 0 
L 2900 0 
L 2900 538 
Q 2691 219 2414 64 
Q 2138 -91 1772 -91 
Q 1169 -91 856 284 
Q 544 659 544 1381 
z
M 1991 3584 
L 1991 3584 
z
" id="DejaVuSans-75" transform="scale(0.015625)"/>
       <path d="M 3513 2113 
L 3513 0 
L 2938 0 
L 2938 2094 
Q 2938 2591 2744 2837 
Q 2550 3084 2163 3084 
Q 1697 3084 1428 2787 
Q 1159 2491 1159 1978 
L 1159 0 
L 581 0 
L 581 3500 
L 1159 3500 
L 1159 2956 
Q 1366 3272 1645 3428 
Q 1925 3584 2291 3584 
Q 2894 3584 3203 3211 
Q 3513 2838 3513 2113 
z
" id="DejaVuSans-6e" transform="scale(0.015625)"/>
       <path d="M 603 3500 
L 1178 3500 
L 1178 0 
L 603 0 
L 603 3500 
z
M 603 4863 
L 1178 4863 
L 1178 4134 
L 603 4134 
L 603 4863 
z
" id="DejaVuSans-69" transform="scale(0.015625)"/>
       <path d="M 513 4856 
L 1013 4856 
Q 1481 4119 1714 3412 
Q 1947 2706 1947 2009 
Q 1947 1309 1714 600 
Q 1481 -109 1013 -844 
L 513 -844 
Q 928 -128 1133 580 
Q 1338 1288 1338 2009 
Q 1338 2731 1133 3434 
Q 928 4138 513 4856 
z
" id="DejaVuSans-29" transform="scale(0.015625)"/>
      </defs>
      <use xlink:href="#DejaVuSans-51"/>
      <use x="78.710938" xlink:href="#DejaVuSans-74"/>
      <use x="117.919922" xlink:href="#DejaVuSans-64"/>
      <use x="181.396484" xlink:href="#DejaVuSans-20"/>
      <use x="213.183594" xlink:href="#DejaVuSans-43"/>
      <use x="283.007812" xlink:href="#DejaVuSans-68"/>
      <use x="346.386719" xlink:href="#DejaVuSans-61"/>
      <use x="407.666016" xlink:href="#DejaVuSans-76"/>
      <use x="466.845703" xlink:href="#DejaVuSans-65"/>
      <use x="528.369141" xlink:href="#DejaVuSans-73"/>
      <use x="580.46875" xlink:href="#DejaVuSans-20"/>
      <use x="612.255859" xlink:href="#DejaVuSans-28"/>
      <use x="651.269531" xlink:href="#DejaVuSans-75"/>
      <use x="714.648438" xlink:href="#DejaVuSans-6e"/>
      <use x="778.027344" xlink:href="#DejaVuSans-69"/>
      <use x="805.810547" xlink:href="#DejaVuSans-74"/>
      <use x="845.019531" xlink:href="#DejaVuSans-29"/>
     </g>
    </g>
   </g>
   <g id="matplotlib.axis_2">
    <g id="ytick_1">
     <g id="line2d_7">
      <defs>
       <path d="M 0 0 
L -3.5 0 
" id="mfc0070c393" style="stroke:#000000;stroke-width:0.8;"/>
      </defs>
      <g>
       <use style="stroke:#000000;stroke-width:0.8;" x="135" xlink:href="#mfc0070c393" y="329.418301"/>
      </g>
     </g>
     <g id="text_8">
      <!-- 0.00 -->
      <g transform="translate(105.734375 333.21752)scale(0.1 -0.1)">
       <defs>
        <path d="M 684 794 
L 1344 794 
L 1344 0 
L 684 0 
L 684 794 
z
" id="DejaVuSans-2e" transform="scale(0.015625)"/>
       </defs>
       <use xlink:href="#DejaVuSans-30"/>
       <use x="63.623047" xlink:href="#DejaVuSans-2e"/>
       <use x="95.410156" xlink:href="#DejaVuSans-30"/>
       <use x="159.033203" xlink:href="#DejaVuSans-30"/>
      </g>
     </g>
    </g>
    <g id="ytick_2">
     <g id="line2d_8">
      <g>
       <use style="stroke:#000000;stroke-width:0.8;" x="135" xlink:href="#mfc0070c393" y="281.120511"/>
      </g>
     </g>
     <g id="text_9">
      <!-- 0.01 -->
      <g transform="translate(105.734375 284.91973)scale(0.1 -0.1)">
       <use xlink:href="#DejaVuSans-30"/>
       <use x="63.623047" xlink:href="#DejaVuSans-2e"/>
       <use x="95.410156" xlink:href="#DejaVuSans-30"/>
       <use x="159.033203" xlink:href="#DejaVuSans-31"/>
      </g>
     </g>
    </g>
    <g id="ytick_3">
     <g id="line2d_9">
      <g>
       <use style="stroke:#000000;stroke-width:0.8;" x="135" xlink:href="#mfc0070c393" y="232.822721"/>
      </g>
     </g>
     <g id="text_10">
      <!-- 0.02 -->
      <g transform="translate(105.734375 236.621939)scale(0.1 -0.1)">
       <use xlink:href="#DejaVuSans-30"/>
       <use x="63.623047" xlink:href="#DejaVuSans-2e"/>
       <use x="95.410156" xlink:href="#DejaVuSans-30"/>
       <use x="159.033203" xlink:href="#DejaVuSans-32"/>
      </g>
     </g>
    </g>
    <g id="ytick_4">
     <g id="line2d_10">
      <g>
       <use style="stroke:#000000;stroke-width:0.8;" x="135" xlink:href="#mfc0070c393" y="184.52493"/>
      </g>
     </g>
     <g id="text_11">
      <!-- 0.03 -->
      <g transform="translate(105.734375 188.324149)scale(0.1 -0.1)">
       <defs>
        <path d="M 2597 2516 
Q 3050 2419 3304 2112 
Q 3559 1806 3559 1356 
Q 3559 666 3084 287 
Q 2609 -91 1734 -91 
Q 1441 -91 1130 -33 
Q 819 25 488 141 
L 488 750 
Q 750 597 1062 519 
Q 1375 441 1716 441 
Q 2309 441 2620 675 
Q 2931 909 2931 1356 
Q 2931 1769 2642 2001 
Q 2353 2234 1838 2234 
L 1294 2234 
L 1294 2753 
L 1863 2753 
Q 2328 2753 2575 2939 
Q 2822 3125 2822 3475 
Q 2822 3834 2567 4026 
Q 2313 4219 1838 4219 
Q 1578 4219 1281 4162 
Q 984 4106 628 3988 
L 628 4550 
Q 988 4650 1302 4700 
Q 1616 4750 1894 4750 
Q 2613 4750 3031 4423 
Q 3450 4097 3450 3541 
Q 3450 3153 3228 2886 
Q 3006 2619 2597 2516 
z
" id="DejaVuSans-33" transform="scale(0.015625)"/>
       </defs>
       <use xlink:href="#DejaVuSans-30"/>
       <use x="63.623047" xlink:href="#DejaVuSans-2e"/>
       <use x="95.410156" xlink:href="#DejaVuSans-30"/>
       <use x="159.033203" xlink:href="#DejaVuSans-33"/>
      </g>
     </g>
    </g>
    <g id="ytick_5">
     <g id="line2d_11">
      <g>
       <use style="stroke:#000000;stroke-width:0.8;" x="135" xlink:href="#mfc0070c393" y="136.22714"/>
      </g>
     </g>
     <g id="text_12">
      <!-- 0.04 -->
      <g transform="translate(105.734375 140.026359)scale(0.1 -0.1)">
       <use xlink:href="#DejaVuSans-30"/>
       <use x="63.623047" xlink:href="#DejaVuSans-2e"/>
       <use x="95.410156" xlink:href="#DejaVuSans-30"/>
       <use x="159.033203" xlink:href="#DejaVuSans-34"/>
      </g>
     </g>
    </g>
    <g id="ytick_6">
     <g id="line2d_12">
      <g>
       <use style="stroke:#000000;stroke-width:0.8;" x="135" xlink:href="#mfc0070c393" y="87.92935"/>
      </g>
     </g>
     <g id="text_13">
      <!-- 0.05 -->
      <g transform="translate(105.734375 91.728568)scale(0.1 -0.1)">
       <defs>
        <path d="M 691 4666 
L 3169 4666 
L 3169 4134 
L 1269 4134 
L 1269 2991 
Q 1406 3038 1543 3061 
Q 1681 3084 1819 3084 
Q 2600 3084 3056 2656 
Q 3513 2228 3513 1497 
Q 3513 744 3044 326 
Q 2575 -91 1722 -91 
Q 1428 -91 1123 -41 
Q 819 9 494 109 
L 494 744 
Q 775 591 1075 516 
Q 1375 441 1709 441 
Q 2250 441 2565 725 
Q 2881 1009 2881 1497 
Q 2881 1984 2565 2268 
Q 2250 2553 1709 2553 
Q 1456 2553 1204 2497 
Q 953 2441 691 2322 
L 691 4666 
z
" id="DejaVuSans-35" transform="scale(0.015625)"/>
       </defs>
       <use xlink:href="#DejaVuSans-30"/>
       <use x="63.623047" xlink:href="#DejaVuSans-2e"/>
       <use x="95.410156" xlink:href="#DejaVuSans-30"/>
       <use x="159.033203" xlink:href="#DejaVuSans-35"/>
      </g>
     </g>
    </g>
    <g id="text_14">
     <!-- Tempo Exucução (s) -->
     <g transform="translate(99.654687 262.546875)rotate(-90)scale(0.1 -0.1)">
      <defs>
       <path d="M -19 4666 
L 3928 4666 
L 3928 4134 
L 2272 4134 
L 2272 0 
L 1638 0 
L 1638 4134 
L -19 4134 
L -19 4666 
z
" id="DejaVuSans-54" transform="scale(0.015625)"/>
       <path d="M 3328 2828 
Q 3544 3216 3844 3400 
Q 4144 3584 4550 3584 
Q 5097 3584 5394 3201 
Q 5691 2819 5691 2113 
L 5691 0 
L 5113 0 
L 5113 2094 
Q 5113 2597 4934 2840 
Q 4756 3084 4391 3084 
Q 3944 3084 3684 2787 
Q 3425 2491 3425 1978 
L 3425 0 
L 2847 0 
L 2847 2094 
Q 2847 2600 2669 2842 
Q 2491 3084 2119 3084 
Q 1678 3084 1418 2786 
Q 1159 2488 1159 1978 
L 1159 0 
L 581 0 
L 581 3500 
L 1159 3500 
L 1159 2956 
Q 1356 3278 1631 3431 
Q 1906 3584 2284 3584 
Q 2666 3584 2933 3390 
Q 3200 3197 3328 2828 
z
" id="DejaVuSans-6d" transform="scale(0.015625)"/>
       <path d="M 1159 525 
L 1159 -1331 
L 581 -1331 
L 581 3500 
L 1159 3500 
L 1159 2969 
Q 1341 3281 1617 3432 
Q 1894 3584 2278 3584 
Q 2916 3584 3314 3078 
Q 3713 2572 3713 1747 
Q 3713 922 3314 415 
Q 2916 -91 2278 -91 
Q 1894 -91 1617 61 
Q 1341 213 1159 525 
z
M 3116 1747 
Q 3116 2381 2855 2742 
Q 2594 3103 2138 3103 
Q 1681 3103 1420 2742 
Q 1159 2381 1159 1747 
Q 1159 1113 1420 752 
Q 1681 391 2138 391 
Q 2594 391 2855 752 
Q 3116 1113 3116 1747 
z
" id="DejaVuSans-70" transform="scale(0.015625)"/>
       <path d="M 1959 3097 
Q 1497 3097 1228 2736 
Q 959 2375 959 1747 
Q 959 1119 1226 758 
Q 1494 397 1959 397 
Q 2419 397 2687 759 
Q 2956 1122 2956 1747 
Q 2956 2369 2687 2733 
Q 2419 3097 1959 3097 
z
M 1959 3584 
Q 2709 3584 3137 3096 
Q 3566 2609 3566 1747 
Q 3566 888 3137 398 
Q 2709 -91 1959 -91 
Q 1206 -91 779 398 
Q 353 888 353 1747 
Q 353 2609 779 3096 
Q 1206 3584 1959 3584 
z
" id="DejaVuSans-6f" transform="scale(0.015625)"/>
       <path d="M 628 4666 
L 3578 4666 
L 3578 4134 
L 1259 4134 
L 1259 2753 
L 3481 2753 
L 3481 2222 
L 1259 2222 
L 1259 531 
L 3634 531 
L 3634 0 
L 628 0 
L 628 4666 
z
" id="DejaVuSans-45" transform="scale(0.015625)"/>
       <path d="M 3513 3500 
L 2247 1797 
L 3578 0 
L 2900 0 
L 1881 1375 
L 863 0 
L 184 0 
L 1544 1831 
L 300 3500 
L 978 3500 
L 1906 2253 
L 2834 3500 
L 3513 3500 
z
" id="DejaVuSans-78" transform="scale(0.015625)"/>
       <path d="M 3122 3366 
L 3122 2828 
Q 2878 2963 2633 3030 
Q 2388 3097 2138 3097 
Q 1578 3097 1268 2742 
Q 959 2388 959 1747 
Q 959 1106 1268 751 
Q 1578 397 2138 397 
Q 2388 397 2633 464 
Q 2878 531 3122 666 
L 3122 134 
Q 2881 22 2623 -34 
Q 2366 -91 2075 -91 
Q 1284 -91 818 406 
Q 353 903 353 1747 
Q 353 2603 823 3093 
Q 1294 3584 2113 3584 
Q 2378 3584 2631 3529 
Q 2884 3475 3122 3366 
z
" id="DejaVuSans-63" transform="scale(0.015625)"/>
       <path d="M 3122 3366 
L 3122 2828 
Q 2878 2963 2633 3030 
Q 2388 3097 2138 3097 
Q 1578 3097 1268 2742 
Q 959 2388 959 1747 
Q 959 1106 1268 751 
Q 1578 397 2138 397 
Q 2388 397 2633 464 
Q 2878 531 3122 666 
L 3122 134 
Q 2881 22 2623 -34 
Q 2366 -91 2075 -91 
Q 1284 -91 818 406 
Q 353 903 353 1747 
Q 353 2603 823 3093 
Q 1294 3584 2113 3584 
Q 2378 3584 2631 3529 
Q 2884 3475 3122 3366 
z
M 2311 0 
Q 2482 -194 2566 -358 
Q 2651 -522 2651 -672 
Q 2651 -950 2463 -1092 
Q 2276 -1234 1907 -1234 
Q 1764 -1234 1628 -1215 
Q 1492 -1197 1357 -1159 
L 1357 -750 
Q 1464 -803 1579 -826 
Q 1695 -850 1842 -850 
Q 2026 -850 2120 -775 
Q 2214 -700 2214 -556 
Q 2214 -463 2146 -327 
Q 2079 -191 1939 0 
L 2311 0 
z
" id="DejaVuSans-e7" transform="scale(0.015625)"/>
       <path d="M 2194 1759 
Q 1497 1759 1228 1600 
Q 959 1441 959 1056 
Q 959 750 1161 570 
Q 1363 391 1709 391 
Q 2188 391 2477 730 
Q 2766 1069 2766 1631 
L 2766 1759 
L 2194 1759 
z
M 3341 1997 
L 3341 0 
L 2766 0 
L 2766 531 
Q 2569 213 2275 61 
Q 1981 -91 1556 -91 
Q 1019 -91 701 211 
Q 384 513 384 1019 
Q 384 1609 779 1909 
Q 1175 2209 1959 2209 
L 2766 2209 
L 2766 2266 
Q 2766 2663 2505 2880 
Q 2244 3097 1772 3097 
Q 1472 3097 1187 3025 
Q 903 2953 641 2809 
L 641 3341 
Q 956 3463 1253 3523 
Q 1550 3584 1831 3584 
Q 2591 3584 2966 3190 
Q 3341 2797 3341 1997 
z
M 1844 4281 
L 1665 4453 
Q 1597 4516 1545 4545 
Q 1494 4575 1453 4575 
Q 1334 4575 1278 4461 
Q 1222 4347 1215 4091 
L 825 4091 
Q 831 4513 990 4742 
Q 1150 4972 1434 4972 
Q 1553 4972 1653 4928 
Q 1753 4884 1869 4781 
L 2047 4609 
Q 2115 4547 2167 4517 
Q 2219 4488 2259 4488 
Q 2378 4488 2434 4602 
Q 2490 4716 2497 4972 
L 2887 4972 
Q 2881 4550 2721 4320 
Q 2562 4091 2278 4091 
Q 2159 4091 2059 4134 
Q 1959 4178 1844 4281 
z
" id="DejaVuSans-e3" transform="scale(0.015625)"/>
      </defs>
      <use xlink:href="#DejaVuSans-54"/>
      <use x="44.083984" xlink:href="#DejaVuSans-65"/>
      <use x="105.607422" xlink:href="#DejaVuSans-6d"/>
      <use x="203.019531" xlink:href="#DejaVuSans-70"/>
      <use x="266.496094" xlink:href="#DejaVuSans-6f"/>
      <use x="327.677734" xlink:href="#DejaVuSans-20"/>
      <use x="359.464844" xlink:href="#DejaVuSans-45"/>
      <use x="422.648438" xlink:href="#DejaVuSans-78"/>
      <use x="481.828125" xlink:href="#DejaVuSans-75"/>
      <use x="545.207031" xlink:href="#DejaVuSans-63"/>
      <use x="600.1875" xlink:href="#DejaVuSans-75"/>
      <use x="663.566406" xlink:href="#DejaVuSans-e7"/>
      <use x="718.546875" xlink:href="#DejaVuSans-e3"/>
      <use x="779.826172" xlink:href="#DejaVuSans-6f"/>
      <use x="841.007812" xlink:href="#DejaVuSans-20"/>
      <use x="872.794922" xlink:href="#DejaVuSans-28"/>
      <use x="911.808594" xlink:href="#DejaVuSans-73"/>
      <use x="963.908203" xlink:href="#DejaVuSans-29"/>
     </g>
    </g>
   </g>
   <g id="line2d_13">
    <path clip-path="url(#p40e3825c1b)" d="M 173.045455 211.378502 
L 180.731405 211.344693 
L 188.417355 211.310885 
L 196.103306 211.267417 
L 203.789256 211.223949 
L 211.475207 211.122523 
L 219.161157 211.074226 
L 226.847107 211.001779 
L 234.533058 210.914843 
L 242.219008 210.818247 
L 249.904959 210.711992 
L 257.590909 210.581588 
L 265.27686 210.441525 
L 272.96281 210.272482 
L 280.64876 210.10344 
L 288.334711 209.924738 
L 296.020661 209.731547 
L 303.706612 209.528696 
L 311.392562 209.306527 
L 319.078512 209.065038 
L 326.764463 208.736613 
L 334.450413 208.475805 
L 342.136364 208.186018 
L 349.822314 207.867252 
L 357.508264 207.533998 
L 365.194215 207.181424 
L 372.880165 206.81919 
L 380.566116 206.423148 
L 388.252066 206.036766 
L 395.938017 205.626235 
L 403.623967 205.196385 
L 411.309917 204.747215 
L 418.995868 204.278727 
L 426.681818 203.781259 
L 434.367769 203.259643 
L 442.053719 202.713878 
L 449.739669 202.143964 
L 457.42562 201.545072 
L 465.11157 200.9172 
L 472.797521 200.245861 
L 480.483471 199.555203 
L 488.169421 198.840395 
L 495.855372 198.096609 
L 503.541322 197.319015 
L 511.227273 196.512442 
L 518.913223 195.527167 
L 526.599174 194.725424 
L 534.285124 193.875383 
L 541.971074 193.015682 
L 549.657025 192.127002 
L 557.342975 191.132068 
L 565.028926 190.195091 
L 572.714876 189.238795 
L 580.400826 188.24386 
L 588.086777 187.215117 
L 595.772727 185.993183 
L 603.458678 184.809887 
L 611.144628 183.64591 
L 618.830579 182.230785 
L 626.516529 180.82532 
L 634.202479 179.521279 
L 641.88843 178.275196 
L 649.57438 176.821433 
L 657.260331 175.502903 
L 664.946281 174.150565 
L 672.632231 172.677482 
L 680.318182 170.948421 
L 688.004132 169.214531 
L 695.690083 167.519278 
L 703.376033 166.022047 
L 711.061983 164.476517 
L 718.747934 162.781265 
L 726.433884 161.1488 
L 734.119835 159.468037 
L 741.805785 157.608572 
L 749.491736 155.811894 
L 757.177686 153.875153 
L 764.863636 151.981879 
L 772.549587 150.035478 
L 780.235537 147.944184 
L 787.921488 145.910847 
L 795.607438 143.737446 
L 803.293388 141.617173 
L 810.979339 139.438943 
L 818.665289 137.226904 
L 826.35124 134.942419 
L 834.03719 132.628955 
L 841.72314 130.257533 
L 849.409091 127.847473 
L 857.095041 125.384286 
L 864.780992 122.863141 
L 872.466942 120.288869 
L 880.152893 117.675959 
L 887.838843 114.990601 
L 895.524793 112.252117 
L 903.210744 109.450845 
L 910.896694 106.606105 
L 918.582645 103.737216 
L 926.268595 100.8152 
L 933.954545 97.854545 
" style="fill:none;stroke:#1f77b4;stroke-linecap:square;stroke-width:1.5;"/>
   </g>
   <g id="line2d_14">
    <path clip-path="url(#p40e3825c1b)" d="M 173.045455 326.945455 
L 180.731405 326.916476 
L 188.417355 326.873008 
L 196.103306 326.83437 
L 203.789256 326.795731 
L 211.475207 326.732944 
L 219.161157 326.670157 
L 226.847107 326.588051 
L 234.533058 326.491455 
L 242.219008 326.39003 
L 249.904959 326.288605 
L 257.590909 326.17752 
L 265.27686 326.071265 
L 272.96281 325.95052 
L 280.64876 325.805627 
L 288.334711 325.675223 
L 296.020661 325.544819 
L 303.706612 325.197075 
L 311.392562 325.023202 
L 319.078512 324.86382 
L 326.764463 324.685118 
L 334.450413 324.511246 
L 342.136364 324.322885 
L 349.822314 324.139353 
L 357.508264 323.931672 
L 365.194215 323.733651 
L 372.880165 323.492163 
L 380.566116 323.255503 
L 388.252066 323.009185 
L 395.938017 322.772525 
L 403.623967 322.511717 
L 411.309917 322.24125 
L 418.995868 321.961123 
L 426.681818 321.690655 
L 434.367769 321.289783 
L 442.053719 320.792316 
L 449.739669 320.314168 
L 457.42562 319.83602 
L 465.11157 319.353042 
L 472.797521 318.865234 
L 480.483471 318.343618 
L 488.169421 317.797853 
L 495.855372 317.256918 
L 503.541322 316.696663 
L 511.227273 316.150898 
L 518.913223 315.595474 
L 526.599174 315.011071 
L 534.285124 314.445986 
L 541.971074 313.871243 
L 549.657025 313.291669 
L 557.342975 312.663798 
L 565.028926 312.045586 
L 572.714876 311.437034 
L 580.400826 310.775354 
L 588.086777 310.084696 
L 595.772727 309.394038 
L 603.458678 308.703379 
L 611.144628 307.998231 
L 618.830579 307.249616 
L 626.516529 306.520319 
L 634.202479 305.781363 
L 641.88843 305.018258 
L 649.57438 304.240663 
L 657.260331 303.467899 
L 664.946281 302.675815 
L 672.632231 301.845093 
L 680.318182 301.03369 
L 688.004132 300.212628 
L 695.690083 299.348097 
L 703.376033 298.488396 
L 711.061983 297.643185 
L 718.747934 296.744846 
L 726.433884 295.860997 
L 734.119835 294.967488 
L 741.805785 294.04983 
L 749.491736 293.141831 
L 757.177686 292.441513 
L 764.863636 291.741195 
L 772.549587 291.089175 
L 780.235537 290.422665 
L 787.921488 289.649901 
L 795.607438 288.925434 
L 803.293388 288.196137 
L 810.979339 287.428202 
L 818.665289 286.674757 
L 826.35124 285.901992 
L 834.03719 285.003653 
L 841.72314 283.9894 
L 849.409091 282.922019 
L 857.095041 281.873957 
L 864.780992 280.743788 
L 872.466942 279.676407 
L 880.152893 278.570388 
L 887.838843 277.474028 
L 895.524793 276.382498 
L 903.210744 275.23784 
L 910.896694 274.126991 
L 918.582645 272.977504 
L 926.268595 271.823186 
L 933.954545 270.610912 
" style="fill:none;stroke:#ff7f0e;stroke-linecap:square;stroke-width:1.5;"/>
   </g>
   <g id="patch_3">
    <path d="M 135 338.4 
L 135 86.4 
" style="fill:none;stroke:#000000;stroke-linecap:square;stroke-linejoin:miter;stroke-width:0.8;"/>
   </g>
   <g id="patch_4">
    <path d="M 972 338.4 
L 972 86.4 
" style="fill:none;stroke:#000000;stroke-linecap:square;stroke-linejoin:miter;stroke-width:0.8;"/>
   </g>
   <g id="patch_5">
    <path d="M 135 338.4 
L 972 338.4 
" style="fill:none;stroke:#000000;stroke-linecap:square;stroke-linejoin:miter;stroke-width:0.8;"/>
   </g>
   <g id="patch_6">
    <path d="M 135 86.4 
L 972 86.4 
" style="fill:none;stroke:#000000;stroke-linecap:square;stroke-linejoin:miter;stroke-width:0.8;"/>
   </g>
   <g id="text_15">
    <!-- Pior Caso -->
    <g transform="translate(525.642187 80.4)scale(0.12 -0.12)">
     <defs>
      <path d="M 1259 4147 
L 1259 2394 
L 2053 2394 
Q 2494 2394 2734 2622 
Q 2975 2850 2975 3272 
Q 2975 3691 2734 3919 
Q 2494 4147 2053 4147 
L 1259 4147 
z
M 628 4666 
L 2053 4666 
Q 2838 4666 3239 4311 
Q 3641 3956 3641 3272 
Q 3641 2581 3239 2228 
Q 2838 1875 2053 1875 
L 1259 1875 
L 1259 0 
L 628 0 
L 628 4666 
z
" id="DejaVuSans-50" transform="scale(0.015625)"/>
      <path d="M 2631 2963 
Q 2534 3019 2420 3045 
Q 2306 3072 2169 3072 
Q 1681 3072 1420 2755 
Q 1159 2438 1159 1844 
L 1159 0 
L 581 0 
L 581 3500 
L 1159 3500 
L 1159 2956 
Q 1341 3275 1631 3429 
Q 1922 3584 2338 3584 
Q 2397 3584 2469 3576 
Q 2541 3569 2628 3553 
L 2631 2963 
z
" id="DejaVuSans-72" transform="scale(0.015625)"/>
     </defs>
     <use xlink:href="#DejaVuSans-50"/>
     <use x="58.052734" xlink:href="#DejaVuSans-69"/>
     <use x="85.835938" xlink:href="#DejaVuSans-6f"/>
     <use x="147.017578" xlink:href="#DejaVuSans-72"/>
     <use x="188.130859" xlink:href="#DejaVuSans-20"/>
     <use x="219.917969" xlink:href="#DejaVuSans-43"/>
     <use x="289.742188" xlink:href="#DejaVuSans-61"/>
     <use x="351.021484" xlink:href="#DejaVuSans-73"/>
     <use x="403.121094" xlink:href="#DejaVuSans-6f"/>
    </g>
   </g>
   <g id="legend_1">
    <g id="patch_7">
     <path d="M 142 123.75625 
L 201.685937 123.75625 
Q 203.685937 123.75625 203.685937 121.75625 
L 203.685937 93.4 
Q 203.685937 91.4 201.685937 91.4 
L 142 91.4 
Q 140 91.4 140 93.4 
L 140 121.75625 
Q 140 123.75625 142 123.75625 
z
" style="fill:#ffffff;opacity:0.8;stroke:#cccccc;stroke-linejoin:miter;"/>
    </g>
    <g id="line2d_15">
     <path d="M 144 99.498437 
L 164 99.498437 
" style="fill:none;stroke:#1f77b4;stroke-linecap:square;stroke-width:1.5;"/>
    </g>
    <g id="line2d_16"/>
    <g id="text_16">
     <!-- AVL -->
     <g transform="translate(172 102.998437)scale(0.1 -0.1)">
      <defs>
       <path d="M 2188 4044 
L 1331 1722 
L 3047 1722 
L 2188 4044 
z
M 1831 4666 
L 2547 4666 
L 4325 0 
L 3669 0 
L 3244 1197 
L 1141 1197 
L 716 0 
L 50 0 
L 1831 4666 
z
" id="DejaVuSans-41" transform="scale(0.015625)"/>
       <path d="M 1831 0 
L 50 4666 
L 709 4666 
L 2188 738 
L 3669 4666 
L 4325 4666 
L 2547 0 
L 1831 0 
z
" id="DejaVuSans-56" transform="scale(0.015625)"/>
       <path d="M 628 4666 
L 1259 4666 
L 1259 531 
L 3531 531 
L 3531 0 
L 628 0 
L 628 4666 
z
" id="DejaVuSans-4c" transform="scale(0.015625)"/>
      </defs>
      <use xlink:href="#DejaVuSans-41"/>
      <use x="62.033203" xlink:href="#DejaVuSans-56"/>
      <use x="130.441406" xlink:href="#DejaVuSans-4c"/>
     </g>
    </g>
    <g id="line2d_17">
     <path d="M 144 114.176562 
L 164 114.176562 
" style="fill:none;stroke:#ff7f0e;stroke-linecap:square;stroke-width:1.5;"/>
    </g>
    <g id="line2d_18"/>
    <g id="text_17">
     <!-- BTree -->
     <g transform="translate(172 117.676562)scale(0.1 -0.1)">
      <defs>
       <path d="M 1259 2228 
L 1259 519 
L 2272 519 
Q 2781 519 3026 730 
Q 3272 941 3272 1375 
Q 3272 1813 3026 2020 
Q 2781 2228 2272 2228 
L 1259 2228 
z
M 1259 4147 
L 1259 2741 
L 2194 2741 
Q 2656 2741 2882 2914 
Q 3109 3088 3109 3444 
Q 3109 3797 2882 3972 
Q 2656 4147 2194 4147 
L 1259 4147 
z
M 628 4666 
L 2241 4666 
Q 2963 4666 3353 4366 
Q 3744 4066 3744 3513 
Q 3744 3084 3544 2831 
Q 3344 2578 2956 2516 
Q 3422 2416 3680 2098 
Q 3938 1781 3938 1306 
Q 3938 681 3513 340 
Q 3088 0 2303 0 
L 628 0 
L 628 4666 
z
" id="DejaVuSans-42" transform="scale(0.015625)"/>
      </defs>
      <use xlink:href="#DejaVuSans-42"/>
      <use x="68.603516" xlink:href="#DejaVuSans-54"/>
      <use x="114.9375" xlink:href="#DejaVuSans-72"/>
      <use x="153.800781" xlink:href="#DejaVuSans-65"/>
      <use x="215.324219" xlink:href="#DejaVuSans-65"/>
     </g>
    </g>
   </g>
  </g>
  <g id="axes_2">
   <g id="patch_8">
    <path d="M 135 640.8 
L 972 640.8 
L 972 388.8 
L 135 388.8 
z
" style="fill:#ffffff;"/>
   </g>
   <g id="matplotlib.axis_3">
    <g id="xtick_7">
     <g id="line2d_19">
      <g>
       <use style="stroke:#000000;stroke-width:0.8;" x="165.359504" xlink:href="#m45db3171b2" y="640.8"/>
      </g>
     </g>
     <g id="text_18">
      <!-- 0 -->
      <g transform="translate(162.178254 655.398438)scale(0.1 -0.1)">
       <use xlink:href="#DejaVuSans-30"/>
      </g>
     </g>
    </g>
    <g id="xtick_8">
     <g id="line2d_20">
      <g>
       <use style="stroke:#000000;stroke-width:0.8;" x="319.078512" xlink:href="#m45db3171b2" y="640.8"/>
      </g>
     </g>
     <g id="text_19">
      <!-- 20 -->
      <g transform="translate(312.716012 655.398438)scale(0.1 -0.1)">
       <use xlink:href="#DejaVuSans-32"/>
       <use x="63.623047" xlink:href="#DejaVuSans-30"/>
      </g>
     </g>
    </g>
    <g id="xtick_9">
     <g id="line2d_21">
      <g>
       <use style="stroke:#000000;stroke-width:0.8;" x="472.797521" xlink:href="#m45db3171b2" y="640.8"/>
      </g>
     </g>
     <g id="text_20">
      <!-- 40 -->
      <g transform="translate(466.435021 655.398438)scale(0.1 -0.1)">
       <use xlink:href="#DejaVuSans-34"/>
       <use x="63.623047" xlink:href="#DejaVuSans-30"/>
      </g>
     </g>
    </g>
    <g id="xtick_10">
     <g id="line2d_22">
      <g>
       <use style="stroke:#000000;stroke-width:0.8;" x="626.516529" xlink:href="#m45db3171b2" y="640.8"/>
      </g>
     </g>
     <g id="text_21">
      <!-- 60 -->
      <g transform="translate(620.154029 655.398438)scale(0.1 -0.1)">
       <use xlink:href="#DejaVuSans-36"/>
       <use x="63.623047" xlink:href="#DejaVuSans-30"/>
      </g>
     </g>
    </g>
    <g id="xtick_11">
     <g id="line2d_23">
      <g>
       <use style="stroke:#000000;stroke-width:0.8;" x="780.235537" xlink:href="#m45db3171b2" y="640.8"/>
      </g>
     </g>
     <g id="text_22">
      <!-- 80 -->
      <g transform="translate(773.873037 655.398438)scale(0.1 -0.1)">
       <use xlink:href="#DejaVuSans-38"/>
       <use x="63.623047" xlink:href="#DejaVuSans-30"/>
      </g>
     </g>
    </g>
    <g id="xtick_12">
     <g id="line2d_24">
      <g>
       <use style="stroke:#000000;stroke-width:0.8;" x="933.954545" xlink:href="#m45db3171b2" y="640.8"/>
      </g>
     </g>
     <g id="text_23">
      <!-- 100 -->
      <g transform="translate(924.410795 655.398438)scale(0.1 -0.1)">
       <use xlink:href="#DejaVuSans-31"/>
       <use x="63.623047" xlink:href="#DejaVuSans-30"/>
       <use x="127.246094" xlink:href="#DejaVuSans-30"/>
      </g>
     </g>
    </g>
    <g id="text_24">
     <!-- Qtd Chaves (unit) -->
     <g transform="translate(509.298437 669.076563)scale(0.1 -0.1)">
      <use xlink:href="#DejaVuSans-51"/>
      <use x="78.710938" xlink:href="#DejaVuSans-74"/>
      <use x="117.919922" xlink:href="#DejaVuSans-64"/>
      <use x="181.396484" xlink:href="#DejaVuSans-20"/>
      <use x="213.183594" xlink:href="#DejaVuSans-43"/>
      <use x="283.007812" xlink:href="#DejaVuSans-68"/>
      <use x="346.386719" xlink:href="#DejaVuSans-61"/>
      <use x="407.666016" xlink:href="#DejaVuSans-76"/>
      <use x="466.845703" xlink:href="#DejaVuSans-65"/>
      <use x="528.369141" xlink:href="#DejaVuSans-73"/>
      <use x="580.46875" xlink:href="#DejaVuSans-20"/>
      <use x="612.255859" xlink:href="#DejaVuSans-28"/>
      <use x="651.269531" xlink:href="#DejaVuSans-75"/>
      <use x="714.648438" xlink:href="#DejaVuSans-6e"/>
      <use x="778.027344" xlink:href="#DejaVuSans-69"/>
      <use x="805.810547" xlink:href="#DejaVuSans-74"/>
      <use x="845.019531" xlink:href="#DejaVuSans-29"/>
     </g>
    </g>
   </g>
   <g id="matplotlib.axis_4">
    <g id="ytick_7">
     <g id="line2d_25">
      <g>
       <use style="stroke:#000000;stroke-width:0.8;" x="135" xlink:href="#mfc0070c393" y="616.955648"/>
      </g>
     </g>
     <g id="text_25">
      <!-- 0.02 -->
      <g transform="translate(105.734375 620.754867)scale(0.1 -0.1)">
       <use xlink:href="#DejaVuSans-30"/>
       <use x="63.623047" xlink:href="#DejaVuSans-2e"/>
       <use x="95.410156" xlink:href="#DejaVuSans-30"/>
       <use x="159.033203" xlink:href="#DejaVuSans-32"/>
      </g>
     </g>
    </g>
    <g id="ytick_8">
     <g id="line2d_26">
      <g>
       <use style="stroke:#000000;stroke-width:0.8;" x="135" xlink:href="#mfc0070c393" y="585.243833"/>
      </g>
     </g>
     <g id="text_26">
      <!-- 0.04 -->
      <g transform="translate(105.734375 589.043052)scale(0.1 -0.1)">
       <use xlink:href="#DejaVuSans-30"/>
       <use x="63.623047" xlink:href="#DejaVuSans-2e"/>
       <use x="95.410156" xlink:href="#DejaVuSans-30"/>
       <use x="159.033203" xlink:href="#DejaVuSans-34"/>
      </g>
     </g>
    </g>
    <g id="ytick_9">
     <g id="line2d_27">
      <g>
       <use style="stroke:#000000;stroke-width:0.8;" x="135" xlink:href="#mfc0070c393" y="553.532018"/>
      </g>
     </g>
     <g id="text_27">
      <!-- 0.06 -->
      <g transform="translate(105.734375 557.331237)scale(0.1 -0.1)">
       <use xlink:href="#DejaVuSans-30"/>
       <use x="63.623047" xlink:href="#DejaVuSans-2e"/>
       <use x="95.410156" xlink:href="#DejaVuSans-30"/>
       <use x="159.033203" xlink:href="#DejaVuSans-36"/>
      </g>
     </g>
    </g>
    <g id="ytick_10">
     <g id="line2d_28">
      <g>
       <use style="stroke:#000000;stroke-width:0.8;" x="135" xlink:href="#mfc0070c393" y="521.820203"/>
      </g>
     </g>
     <g id="text_28">
      <!-- 0.08 -->
      <g transform="translate(105.734375 525.619422)scale(0.1 -0.1)">
       <use xlink:href="#DejaVuSans-30"/>
       <use x="63.623047" xlink:href="#DejaVuSans-2e"/>
       <use x="95.410156" xlink:href="#DejaVuSans-30"/>
       <use x="159.033203" xlink:href="#DejaVuSans-38"/>
      </g>
     </g>
    </g>
    <g id="ytick_11">
     <g id="line2d_29">
      <g>
       <use style="stroke:#000000;stroke-width:0.8;" x="135" xlink:href="#mfc0070c393" y="490.108388"/>
      </g>
     </g>
     <g id="text_29">
      <!-- 0.10 -->
      <g transform="translate(105.734375 493.907607)scale(0.1 -0.1)">
       <use xlink:href="#DejaVuSans-30"/>
       <use x="63.623047" xlink:href="#DejaVuSans-2e"/>
       <use x="95.410156" xlink:href="#DejaVuSans-31"/>
       <use x="159.033203" xlink:href="#DejaVuSans-30"/>
      </g>
     </g>
    </g>
    <g id="ytick_12">
     <g id="line2d_30">
      <g>
       <use style="stroke:#000000;stroke-width:0.8;" x="135" xlink:href="#mfc0070c393" y="458.396573"/>
      </g>
     </g>
     <g id="text_30">
      <!-- 0.12 -->
      <g transform="translate(105.734375 462.195792)scale(0.1 -0.1)">
       <use xlink:href="#DejaVuSans-30"/>
       <use x="63.623047" xlink:href="#DejaVuSans-2e"/>
       <use x="95.410156" xlink:href="#DejaVuSans-31"/>
       <use x="159.033203" xlink:href="#DejaVuSans-32"/>
      </g>
     </g>
    </g>
    <g id="ytick_13">
     <g id="line2d_31">
      <g>
       <use style="stroke:#000000;stroke-width:0.8;" x="135" xlink:href="#mfc0070c393" y="426.684758"/>
      </g>
     </g>
     <g id="text_31">
      <!-- 0.14 -->
      <g transform="translate(105.734375 430.483977)scale(0.1 -0.1)">
       <use xlink:href="#DejaVuSans-30"/>
       <use x="63.623047" xlink:href="#DejaVuSans-2e"/>
       <use x="95.410156" xlink:href="#DejaVuSans-31"/>
       <use x="159.033203" xlink:href="#DejaVuSans-34"/>
      </g>
     </g>
    </g>
    <g id="ytick_14">
     <g id="line2d_32">
      <g>
       <use style="stroke:#000000;stroke-width:0.8;" x="135" xlink:href="#mfc0070c393" y="394.972943"/>
      </g>
     </g>
     <g id="text_32">
      <!-- 0.16 -->
      <g transform="translate(105.734375 398.772161)scale(0.1 -0.1)">
       <use xlink:href="#DejaVuSans-30"/>
       <use x="63.623047" xlink:href="#DejaVuSans-2e"/>
       <use x="95.410156" xlink:href="#DejaVuSans-31"/>
       <use x="159.033203" xlink:href="#DejaVuSans-36"/>
      </g>
     </g>
    </g>
    <g id="text_33">
     <!-- Tempo Exucução (s) -->
     <g transform="translate(99.654687 564.946875)rotate(-90)scale(0.1 -0.1)">
      <use xlink:href="#DejaVuSans-54"/>
      <use x="44.083984" xlink:href="#DejaVuSans-65"/>
      <use x="105.607422" xlink:href="#DejaVuSans-6d"/>
      <use x="203.019531" xlink:href="#DejaVuSans-70"/>
      <use x="266.496094" xlink:href="#DejaVuSans-6f"/>
      <use x="327.677734" xlink:href="#DejaVuSans-20"/>
      <use x="359.464844" xlink:href="#DejaVuSans-45"/>
      <use x="422.648438" xlink:href="#DejaVuSans-78"/>
      <use x="481.828125" xlink:href="#DejaVuSans-75"/>
      <use x="545.207031" xlink:href="#DejaVuSans-63"/>
      <use x="600.1875" xlink:href="#DejaVuSans-75"/>
      <use x="663.566406" xlink:href="#DejaVuSans-e7"/>
      <use x="718.546875" xlink:href="#DejaVuSans-e3"/>
      <use x="779.826172" xlink:href="#DejaVuSans-6f"/>
      <use x="841.007812" xlink:href="#DejaVuSans-20"/>
      <use x="872.794922" xlink:href="#DejaVuSans-28"/>
      <use x="911.808594" xlink:href="#DejaVuSans-73"/>
      <use x="963.908203" xlink:href="#DejaVuSans-29"/>
     </g>
    </g>
   </g>
   <g id="line2d_33">
    <path clip-path="url(#p3e1dc5732b)" d="M 173.045455 572.613017 
L 180.731405 572.552765 
L 188.417355 572.449701 
L 196.103306 572.329197 
L 203.789256 572.169052 
L 211.475207 571.977195 
L 219.161157 571.755213 
L 226.847107 571.498347 
L 234.533058 571.203427 
L 242.219008 570.883138 
L 249.904959 570.527965 
L 257.590909 570.136325 
L 265.27686 569.719314 
L 272.96281 569.259493 
L 280.64876 568.793329 
L 288.334711 568.274841 
L 296.020661 567.72147 
L 303.706612 567.136387 
L 311.392562 566.522763 
L 319.078512 565.877428 
L 326.764463 565.192453 
L 334.450413 564.469423 
L 342.136364 563.709925 
L 349.822314 562.921887 
L 357.508264 562.103722 
L 365.194215 561.231647 
L 372.880165 560.34213 
L 380.566116 559.432001 
L 388.252066 558.469548 
L 395.938017 557.461112 
L 403.623967 556.428892 
L 411.309917 555.371303 
L 418.995868 554.274075 
L 426.681818 553.140377 
L 434.367769 551.949599 
L 442.053719 550.757234 
L 449.739669 549.509374 
L 457.42562 548.237731 
L 465.11157 546.939132 
L 472.797521 545.604064 
L 480.483471 544.218258 
L 488.169421 542.788055 
L 495.855372 541.357852 
L 503.541322 539.897523 
L 511.227273 538.421338 
L 518.913223 536.840504 
L 526.599174 535.240643 
L 534.285124 533.689935 
L 541.971074 531.994939 
L 549.657025 530.280915 
L 557.342975 528.533594 
L 565.028926 526.762489 
L 572.714876 524.969186 
L 580.400826 523.115631 
L 588.086777 521.254147 
L 595.772727 519.353024 
L 603.458678 517.428117 
L 611.144628 515.446128 
L 618.830579 513.435599 
L 626.516529 511.390187 
L 634.202479 509.301964 
L 641.88843 507.25021 
L 649.57438 505.062094 
L 657.260331 502.839096 
L 664.946281 500.584386 
L 672.632231 498.302721 
L 680.318182 495.997272 
L 688.004132 493.69658 
L 695.690083 491.335635 
L 703.376033 488.938222 
L 711.061983 486.505926 
L 718.747934 484.043503 
L 726.433884 481.530342 
L 734.119835 478.985469 
L 741.805785 476.3851 
L 749.491736 473.716551 
L 757.177686 471.132038 
L 764.863636 468.450804 
L 772.549587 465.725173 
L 780.235537 462.934534 
L 787.921488 460.131209 
L 795.607438 457.277146 
L 803.293388 454.408812 
L 810.979339 451.537307 
L 818.665289 448.684829 
L 826.35124 445.695991 
L 834.03719 442.670684 
L 841.72314 439.605737 
L 849.409091 436.569331 
L 857.095041 433.445717 
L 864.780992 430.236481 
L 872.466942 427.032002 
L 880.152893 423.791055 
L 887.838843 420.504125 
L 895.524793 417.21561 
L 903.210744 413.887455 
L 910.896694 410.522831 
L 918.582645 407.093198 
L 926.268595 403.655638 
L 933.954545 400.254545 
" style="fill:none;stroke:#1f77b4;stroke-linecap:square;stroke-width:1.5;"/>
   </g>
   <g id="line2d_34">
    <path clip-path="url(#p3e1dc5732b)" d="M 173.045455 629.345455 
L 180.731405 629.334355 
L 188.417355 629.305815 
L 196.103306 629.27886 
L 203.789256 629.25349 
L 211.475207 629.223364 
L 219.161157 629.188481 
L 226.847107 629.158355 
L 234.533058 629.107616 
L 242.219008 629.041021 
L 249.904959 628.993453 
L 257.590909 628.942714 
L 265.27686 628.87612 
L 272.96281 628.814282 
L 280.64876 628.746101 
L 288.334711 628.679506 
L 296.020661 628.606569 
L 303.706612 628.547902 
L 311.392562 628.43374 
L 319.078512 628.324334 
L 326.764463 628.205415 
L 334.450413 628.135649 
L 342.136364 628.04527 
L 349.822314 627.965991 
L 357.508264 627.878783 
L 365.194215 627.793161 
L 372.880165 627.666314 
L 380.566116 627.571178 
L 388.252066 627.474457 
L 395.938017 627.382493 
L 403.623967 627.276259 
L 411.309917 627.166853 
L 418.995868 627.05269 
L 426.681818 626.933771 
L 434.367769 626.810095 
L 442.053719 626.691176 
L 449.739669 626.564328 
L 457.42562 626.431139 
L 465.11157 626.248796 
L 472.797521 626.112435 
L 480.483471 625.939606 
L 488.169421 625.795317 
L 495.855372 625.582848 
L 503.541322 625.398919 
L 511.227273 625.245117 
L 518.913223 625.072287 
L 526.599174 624.904215 
L 534.285124 624.672719 
L 541.971074 624.498304 
L 549.657025 624.311204 
L 557.342975 624.062266 
L 565.028926 623.87041 
L 572.714876 623.688067 
L 580.400826 623.493039 
L 588.086777 623.2552 
L 595.772727 623.052245 
L 603.458678 622.857217 
L 611.144628 622.654262 
L 618.830579 622.448135 
L 626.516529 622.227738 
L 634.202479 622.01844 
L 641.88843 621.750475 
L 649.57438 621.523735 
L 657.260331 621.293825 
L 664.946281 621.059157 
L 672.632231 620.819733 
L 680.318182 620.573966 
L 688.004132 620.301245 
L 695.690083 620.04755 
L 703.376033 619.793856 
L 711.061983 619.53699 
L 718.747934 619.273782 
L 726.433884 619.00106 
L 734.119835 618.687113 
L 741.805785 618.401707 
L 749.491736 618.125814 
L 757.177686 617.849922 
L 764.863636 617.569272 
L 772.549587 617.24264 
L 780.235537 616.938207 
L 787.921488 616.643287 
L 795.607438 616.346782 
L 803.293388 616.039177 
L 810.979339 615.682419 
L 818.665289 615.324075 
L 826.35124 615.011714 
L 834.03719 614.694596 
L 841.72314 614.364793 
L 849.409091 613.992179 
L 857.095041 613.651277 
L 864.780992 613.319889 
L 872.466942 612.975816 
L 880.152893 612.577832 
L 887.838843 612.238516 
L 895.524793 611.886515 
L 903.210744 611.528171 
L 910.896694 611.084206 
L 918.582645 610.683051 
L 926.268595 610.308852 
L 933.954545 609.940995 
" style="fill:none;stroke:#ff7f0e;stroke-linecap:square;stroke-width:1.5;"/>
   </g>
   <g id="patch_9">
    <path d="M 135 640.8 
L 135 388.8 
" style="fill:none;stroke:#000000;stroke-linecap:square;stroke-linejoin:miter;stroke-width:0.8;"/>
   </g>
   <g id="patch_10">
    <path d="M 972 640.8 
L 972 388.8 
" style="fill:none;stroke:#000000;stroke-linecap:square;stroke-linejoin:miter;stroke-width:0.8;"/>
   </g>
   <g id="patch_11">
    <path d="M 135 640.8 
L 972 640.8 
" style="fill:none;stroke:#000000;stroke-linecap:square;stroke-linejoin:miter;stroke-width:0.8;"/>
   </g>
   <g id="patch_12">
    <path d="M 135 388.8 
L 972 388.8 
" style="fill:none;stroke:#000000;stroke-linecap:square;stroke-linejoin:miter;stroke-width:0.8;"/>
   </g>
   <g id="text_34">
    <!-- Caso Médio -->
    <g transform="translate(518.91375 382.8)scale(0.12 -0.12)">
     <defs>
      <path d="M 628 4666 
L 1569 4666 
L 2759 1491 
L 3956 4666 
L 4897 4666 
L 4897 0 
L 4281 0 
L 4281 4097 
L 3078 897 
L 2444 897 
L 1241 4097 
L 1241 0 
L 628 0 
L 628 4666 
z
" id="DejaVuSans-4d" transform="scale(0.015625)"/>
      <path d="M 3597 1894 
L 3597 1613 
L 953 1613 
Q 991 1019 1311 708 
Q 1631 397 2203 397 
Q 2534 397 2845 478 
Q 3156 559 3463 722 
L 3463 178 
Q 3153 47 2828 -22 
Q 2503 -91 2169 -91 
Q 1331 -91 842 396 
Q 353 884 353 1716 
Q 353 2575 817 3079 
Q 1281 3584 2069 3584 
Q 2775 3584 3186 3129 
Q 3597 2675 3597 1894 
z
M 3022 2063 
Q 3016 2534 2758 2815 
Q 2500 3097 2075 3097 
Q 1594 3097 1305 2825 
Q 1016 2553 972 2059 
L 3022 2063 
z
M 2466 5119 
L 3088 5119 
L 2070 3944 
L 1591 3944 
L 2466 5119 
z
" id="DejaVuSans-e9" transform="scale(0.015625)"/>
     </defs>
     <use xlink:href="#DejaVuSans-43"/>
     <use x="69.824219" xlink:href="#DejaVuSans-61"/>
     <use x="131.103516" xlink:href="#DejaVuSans-73"/>
     <use x="183.203125" xlink:href="#DejaVuSans-6f"/>
     <use x="244.384766" xlink:href="#DejaVuSans-20"/>
     <use x="276.171875" xlink:href="#DejaVuSans-4d"/>
     <use x="362.451172" xlink:href="#DejaVuSans-e9"/>
     <use x="423.974609" xlink:href="#DejaVuSans-64"/>
     <use x="487.451172" xlink:href="#DejaVuSans-69"/>
     <use x="515.234375" xlink:href="#DejaVuSans-6f"/>
    </g>
   </g>
   <g id="legend_2">
    <g id="patch_13">
     <path d="M 142 426.15625 
L 201.685937 426.15625 
Q 203.685937 426.15625 203.685937 424.15625 
L 203.685937 395.8 
Q 203.685937 393.8 201.685937 393.8 
L 142 393.8 
Q 140 393.8 140 395.8 
L 140 424.15625 
Q 140 426.15625 142 426.15625 
z
" style="fill:#ffffff;opacity:0.8;stroke:#cccccc;stroke-linejoin:miter;"/>
    </g>
    <g id="line2d_35">
     <path d="M 144 401.898438 
L 164 401.898438 
" style="fill:none;stroke:#1f77b4;stroke-linecap:square;stroke-width:1.5;"/>
    </g>
    <g id="line2d_36"/>
    <g id="text_35">
     <!-- AVL -->
     <g transform="translate(172 405.398438)scale(0.1 -0.1)">
      <use xlink:href="#DejaVuSans-41"/>
      <use x="62.033203" xlink:href="#DejaVuSans-56"/>
      <use x="130.441406" xlink:href="#DejaVuSans-4c"/>
     </g>
    </g>
    <g id="line2d_37">
     <path d="M 144 416.576563 
L 164 416.576563 
" style="fill:none;stroke:#ff7f0e;stroke-linecap:square;stroke-width:1.5;"/>
    </g>
    <g id="line2d_38"/>
    <g id="text_36">
     <!-- BTree -->
     <g transform="translate(172 420.076563)scale(0.1 -0.1)">
      <use xlink:href="#DejaVuSans-42"/>
      <use x="68.603516" xlink:href="#DejaVuSans-54"/>
      <use x="114.9375" xlink:href="#DejaVuSans-72"/>
      <use x="153.800781" xlink:href="#DejaVuSans-65"/>
      <use x="215.324219" xlink:href="#DejaVuSans-65"/>
     </g>
    </g>
   </g>
  </g>
  <g id="text_37">
   <!-- Tempo Execução - BTree e AVL -->
   <g transform="translate(448.57125 23.7225)scale(0.12 -0.12)">
    <defs>
     <path d="M 313 2009 
L 1997 2009 
L 1997 1497 
L 313 1497 
L 313 2009 
z
" id="DejaVuSans-2d" transform="scale(0.015625)"/>
    </defs>
    <use xlink:href="#DejaVuSans-54"/>
    <use x="44.083984" xlink:href="#DejaVuSans-65"/>
    <use x="105.607422" xlink:href="#DejaVuSans-6d"/>
    <use x="203.019531" xlink:href="#DejaVuSans-70"/>
    <use x="266.496094" xlink:href="#DejaVuSans-6f"/>
    <use x="327.677734" xlink:href="#DejaVuSans-20"/>
    <use x="359.464844" xlink:href="#DejaVuSans-45"/>
    <use x="422.648438" xlink:href="#DejaVuSans-78"/>
    <use x="478.703125" xlink:href="#DejaVuSans-65"/>
    <use x="540.226562" xlink:href="#DejaVuSans-63"/>
    <use x="595.207031" xlink:href="#DejaVuSans-75"/>
    <use x="658.585938" xlink:href="#DejaVuSans-e7"/>
    <use x="713.566406" xlink:href="#DejaVuSans-e3"/>
    <use x="774.845703" xlink:href="#DejaVuSans-6f"/>
    <use x="836.027344" xlink:href="#DejaVuSans-20"/>
    <use x="867.814453" xlink:href="#DejaVuSans-2d"/>
    <use x="903.898438" xlink:href="#DejaVuSans-20"/>
    <use x="935.685547" xlink:href="#DejaVuSans-42"/>
    <use x="1004.289062" xlink:href="#DejaVuSans-54"/>
    <use x="1050.623047" xlink:href="#DejaVuSans-72"/>
    <use x="1089.486328" xlink:href="#DejaVuSans-65"/>
    <use x="1151.009766" xlink:href="#DejaVuSans-65"/>
    <use x="1212.533203" xlink:href="#DejaVuSans-20"/>
    <use x="1244.320312" xlink:href="#DejaVuSans-65"/>
    <use x="1305.84375" xlink:href="#DejaVuSans-20"/>
    <use x="1337.630859" xlink:href="#DejaVuSans-41"/>
    <use x="1399.664062" xlink:href="#DejaVuSans-56"/>
    <use x="1468.072266" xlink:href="#DejaVuSans-4c"/>
   </g>
  </g>
 </g>
 <defs>
  <clipPath id="p40e3825c1b">
   <rect height="252" width="837" x="135" y="86.4"/>
  </clipPath>
  <clipPath id="p3e1dc5732b">
   <rect height="252" width="837" x="135" y="388.8"/>
  </clipPath>
 </defs>
</svg>
